<svg width="131" height="32" viewBox="0 0 131 32" fill="none" xmlns="http://www.w3.org/2000/svg">
<g clip-path="url(#clip0_3110_795)">
<path d="M14.7084 31.8911C14.6411 31.9353 14.5624 31.9589 14.4819 31.9589C14.4013 31.9589 14.3226 31.9353 14.2553 31.8911L6.40261 26.7507C6.34559 26.7125 6.29885 26.6608 6.26654 26.6004C6.23421 26.5398 6.21731 26.4722 6.21731 26.4034C6.21731 26.3347 6.23421 26.2672 6.26654 26.2067C6.29885 26.1461 6.34559 26.0943 6.40261 26.0562L28.3226 11.7016C28.3853 11.6615 28.4576 11.6388 28.5319 11.6356C28.6062 11.6324 28.6803 11.6489 28.7463 11.6834C28.8135 11.718 28.8702 11.7703 28.9101 11.8347C28.9499 11.899 28.9717 11.9731 28.9728 12.0488V22.3319C28.9728 22.4009 28.9558 22.4689 28.923 22.5296C28.8901 22.5902 28.8425 22.6416 28.7848 22.6792L14.7084 31.8911ZM2.77761 24.3768C2.84529 24.4201 2.9239 24.443 3.00417 24.443C3.08444 24.443 3.16304 24.4201 3.23074 24.3768L28.7757 7.64826C28.8335 7.61072 28.8811 7.55927 28.9139 7.49863C28.9468 7.43797 28.9637 7.37002 28.9637 7.30103V0.601437C28.9637 0.491289 28.92 0.385664 28.8423 0.307777C28.7646 0.229888 28.659 0.186128 28.5491 0.186128H23.0777C22.997 0.185904 22.9182 0.209579 22.8511 0.254196L0.194813 15.0945C0.137151 15.1322 0.0898028 15.1836 0.0569725 15.2443C0.0241423 15.3049 0.00684651 15.3728 0.00674821 15.4417V22.3319C0.00664177 22.4009 0.023792 22.4689 0.0566406 22.5296C0.0894892 22.5902 0.137007 22.6416 0.194813 22.6792L2.77761 24.3768ZM0 10.6939C0.000106501 10.7687 0.0203626 10.8421 0.0586319 10.9063C0.0969012 10.9705 0.151716 11.0231 0.217381 11.0587C0.283045 11.0943 0.357081 11.1114 0.431663 11.1083C0.506247 11.1052 0.578675 11.082 0.64119 11.0411L16.0474 0.948678C16.122 0.899675 16.1787 0.827893 16.2093 0.744003C16.2399 0.660111 16.2427 0.568584 16.2173 0.482976C16.1918 0.397368 16.1395 0.322243 16.0681 0.268769C15.9967 0.215296 15.91 0.186323 15.8209 0.186128H0.414627C0.304665 0.186128 0.199111 0.229888 0.121357 0.307777C0.0436026 0.385664 0 0.491289 0 0.601437V10.6939Z" fill="#C4F120"/>
</g>
<path d="M47.248 24.48C45.6 24.48 44.184 24.208 43 23.664C41.816 23.104 40.848 22.376 40.096 21.48C39.344 20.584 38.792 19.608 38.44 18.552C38.088 17.496 37.912 16.464 37.912 15.456V14.928C37.912 13.84 38.096 12.768 38.464 11.712C38.832 10.64 39.384 9.672 40.12 8.808C40.872 7.944 41.808 7.256 42.928 6.744C44.048 6.216 45.36 5.952 46.864 5.952C48.48 5.952 49.904 6.248 51.136 6.84C52.384 7.432 53.384 8.256 54.136 9.312C54.888 10.352 55.328 11.56 55.456 12.936H50.992C50.896 12.408 50.664 11.936 50.296 11.52C49.928 11.088 49.448 10.752 48.856 10.512C48.28 10.256 47.616 10.128 46.864 10.128C46.144 10.128 45.504 10.256 44.944 10.512C44.4 10.752 43.936 11.104 43.552 11.568C43.184 12.016 42.904 12.552 42.712 13.176C42.52 13.8 42.424 14.48 42.424 15.216C42.424 15.952 42.528 16.64 42.736 17.28C42.944 17.904 43.248 18.456 43.648 18.936C44.048 19.4 44.552 19.76 45.16 20.016C45.768 20.272 46.464 20.4 47.248 20.4C48.24 20.4 49.096 20.192 49.816 19.776C50.536 19.36 51.04 18.808 51.328 18.12L50.992 20.76V16.944H55.072V20.544C54.336 21.808 53.288 22.784 51.928 23.472C50.584 24.144 49.024 24.48 47.248 24.48ZM46.768 17.808V14.688H56.512V17.808H46.768ZM66.2562 24.48C64.5762 24.48 63.1522 24.168 61.9842 23.544C60.8322 22.92 59.9522 22.04 59.3442 20.904C58.7362 19.752 58.4322 18.392 58.4322 16.824V6.48H62.8962V16.92C62.8962 17.608 63.0242 18.208 63.2802 18.72C63.5522 19.232 63.9362 19.624 64.4322 19.896C64.9282 20.168 65.5362 20.304 66.2562 20.304C66.9762 20.304 67.5842 20.168 68.0802 19.896C68.5762 19.624 68.9522 19.24 69.2082 18.744C69.4642 18.232 69.5922 17.624 69.5922 16.92V6.48H74.0562V16.824C74.0562 18.392 73.7522 19.752 73.1442 20.904C72.5522 22.04 71.6722 22.92 70.5042 23.544C69.3522 24.168 67.9362 24.48 66.2562 24.48ZM75.0201 24L80.6361 6.48H87.7881L93.5961 24H88.9881L84.4761 9.6L85.7481 10.08H82.5801L83.8761 9.6L79.4841 24H75.0201ZM79.6041 19.944L80.9481 16.296H87.5961L88.9401 19.944H79.6041ZM95.5651 24V6.336H100.029V24H95.5651ZM106.125 24L101.205 16.56H106.053L111.261 24H106.125ZM98.9011 18.624V15.192H103.101C103.629 15.192 104.085 15.088 104.469 14.88C104.853 14.672 105.149 14.376 105.357 13.992C105.581 13.608 105.693 13.16 105.693 12.648C105.693 12.12 105.581 11.664 105.357 11.28C105.149 10.896 104.853 10.6 104.469 10.392C104.085 10.184 103.629 10.08 103.101 10.08H98.9011V6.336H102.837C104.357 6.336 105.669 6.568 106.773 7.032C107.877 7.48 108.725 8.152 109.317 9.048C109.909 9.928 110.205 11.024 110.205 12.336V12.72C110.205 14.032 109.901 15.128 109.293 16.008C108.701 16.872 107.853 17.528 106.749 17.976C105.661 18.408 104.357 18.624 102.837 18.624H98.9011ZM117.315 24.096V19.92H120.195C120.947 19.92 121.619 19.816 122.211 19.608C122.819 19.384 123.331 19.072 123.747 18.672C124.163 18.256 124.483 17.76 124.707 17.184C124.931 16.592 125.043 15.928 125.043 15.192C125.043 14.424 124.931 13.752 124.707 13.176C124.483 12.584 124.163 12.096 123.747 11.712C123.331 11.312 122.819 11.016 122.211 10.824C121.619 10.616 120.947 10.512 120.195 10.512H117.315V6.336H120.003C121.587 6.336 122.971 6.56 124.155 7.008C125.355 7.456 126.355 8.08 127.155 8.88C127.955 9.664 128.555 10.576 128.955 11.616C129.355 12.656 129.555 13.76 129.555 14.928V15.456C129.555 16.528 129.355 17.584 128.955 18.624C128.555 19.648 127.955 20.576 127.155 21.408C126.355 22.224 125.355 22.88 124.155 23.376C122.971 23.856 121.587 24.096 120.003 24.096H117.315ZM113.331 24.096V6.336H117.795V24.096H113.331Z" fill="white"/>
<defs>
<clipPath id="clip0_3110_795">
<rect width="29" height="32" fill="white"/>
</clipPath>
</defs>
</svg>
